PathFileType	4	(X/Y/Z)	C:\Users\Basilio\Documents\Thesis Gigler\squatting_fais\c3dfiles\044\SLS_front_pre4\markers_experimental.trc
DataRate	CameraRate	NumFrames	NumMarkers	Units	OrigDataRate	OrigDataStartFrame	OrigNumFrames
200.000000	200.000000	4	60	mm	200.000000	969	1293
Frame#	Time	FHD			LBHD			RBHD			C7			T10			LSHO			LUUPA			LMUPA			LDUPA			LLEP			LMEP			LUL			LRFIN			RSHO			RUPA1			RMUPA			RDUPA			RLEP			RMEP			RUL			LASI			RASI			USACR			LSACR			RSACR			LTHI1			LTHI2			LTHI3			LTHI4			LLFC			LMFC			LTIB1			LTIB2			LTIB3			LTIB4			LLMAL			LMMAL			LHEE			LMT1			LMT2			LMT5			RTHI			RTHI2			RTHI3			RTHI4			RLFC			RMFC			RTIB1			RTIB2			RTIB3			RTIB4			RLMAL			RHEE			RMT1			RMT2			RMT5			RUFIN			CLAV			LRAD			RMMAL			
		X1	Y1	Z1	X2	Y2	Z2	X3	Y3	Z3	X4	Y4	Z4	X5	Y5	Z5	X6	Y6	Z6	X7	Y7	Z7	X8	Y8	Z8	X9	Y9	Z9	X10	Y10	Z10	X11	Y11	Z11	X12	Y12	Z12	X13	Y13	Z13	X14	Y14	Z14	X15	Y15	Z15	X16	Y16	Z16	X17	Y17	Z17	X18	Y18	Z18	X19	Y19	Z19	X20	Y20	Z20	X21	Y21	Z21	X22	Y22	Z22	X23	Y23	Z23	X24	Y24	Z24	X25	Y25	Z25	X26	Y26	Z26	X27	Y27	Z27	X28	Y28	Z28	X29	Y29	Z29	X30	Y30	Z30	X31	Y31	Z31	X32	Y32	Z32	X33	Y33	Z33	X34	Y34	Z34	X35	Y35	Z35	X36	Y36	Z36	X37	Y37	Z37	X38	Y38	Z38	X39	Y39	Z39	X40	Y40	Z40	X41	Y41	Z41	X42	Y42	Z42	X43	Y43	Z43	X44	Y44	Z44	X45	Y45	Z45	X46	Y46	Z46	X47	Y47	Z47	X48	Y48	Z48	X49	Y49	Z49	X50	Y50	Z50	X51	Y51	Z51	X52	Y52	Z52	X53	Y53	Z53	X54	Y54	Z54	X55	Y55	Z55	X56	Y56	Z56	X57	Y57	Z57	X58	Y58	Z58	X59	Y59	Z59	X60	Y60	Z60	

970	4.845	-233.8745574951172	1812.5	-990.8672485351565	-363.0807800292969	1763.193359375	-1065.7353515625	-402.3189392089845	1742.2607421875	-905.049743652344	-407.7812500000001	1575.635864257813	-990.9611816406252	-422.0508728027345	1275.142456054688	-971.5260009765627	-316.0614624023438	1592.838134765625	-1135.774658203125	-151.143295288086	1561.6494140625	-1230.276245117188	-124.2933731079102	1573.280151367188	-1188.6435546875	-81.87962341308595	1555.5400390625	-1229.754516601563	-24.41960906982423	1553.41552734375	-1217.208862304688	-36.37635803222657	1477.167358398438	-1202.90380859375	225.9539184570313	1560.336059570313	-1091.201904296875	232.1632843017579	1576.117553710938	-989.0446777343752	-323.4641113281251	1585.348754882813	-832.3756103515627	-171.0771789550782	1556.4521484375	-727.3717651367189	-139.7014770507813	1570.430908203125	-765.4127197265626	-101.4039840698242	1554.5322265625	-721.9296875000001	-39.5902442932129	1556.414428710938	-730.2164306640626	-43.65190505981446	1475.2197265625	-740.8814086914064	212.8747253417969	1561.85546875	-855.9641723632815	-263.5305786132813	1068.562622070313	-1062.340698242188	-259.3539733886719	1065.114990234375	-845.330749511719	-426.9218750000001	1124.485473632813	-951.853454589844	-433.3397827148439	1090.939697265625	-976.6016235351565	-430.5968627929689	1096.656005859375	-920.2137451171877	-344.3304138183594	826.4846801757815	-1126.135986328125	-302.7788085937501	751.8179931640626	-1127.623046875	-255.6106414794922	759.8435058593751	-1125.34033203125	-322.8862304687501	697.6361083984376	-1112.358154296875	-287.2343750000001	541.3948364257814	-1098.2900390625	-278.2139282226563	539.6489257812501	-976.0530395507815	-268.2715759277344	367.4879760742188	-1019.629028320313	-296.5172119140626	319.0167236328126	-1088.327880859375	-265.5042419433594	318.3432006835938	-1052.142822265625	-285.5077819824219	242.3920135498047	-1020.147399902344	-342.1903076171876	126.7473907470703	-1062.463989257813	-323.5411376953126	138.7183380126953	-978.897888183594	-407.1792907714845	110.1800689697266	-1010.184326171875	-202.792465209961	63.69944763183595	-987.5413208007815	-201.1217498779297	62.81531524658205	-1034.013793945313	-238.3359985351563	47.46044540405274	-1080.659423828125	-337.5613403320313	796.6794433593752	-745.2640991210939	-291.6133422851563	747.5413208007814	-737.5233764648439	-259.0844421386719	752.7823486328126	-743.0617065429689	-306.9988403320313	664.9187011718751	-747.3101806640626	-293.8907470703126	553.5853271484376	-741.3115844726564	-305.7441406250001	534.2129516601564	-861.8604736328127	-253.5764617919922	422.2982177734376	-756.6948852539064	-323.4739990234376	360.0489501953126	-696.9122924804689	-284.4032592773438	349.3648376464844	-716.6746826171876	-278.8754577636719	295.8583068847657	-737.4302978515626	-349.4042663574219	148.5510406494141	-699.2440795898439	-414.0977172851564	117.8437881469727	-738.7310791015626	-212.7575836181641	68.28182220458986	-774.580993652344	-203.3886718750001	65.22454071044923	-738.3269042968751	-240.3050231933594	51.78741455078126	-683.8515014648439	228.0709381103516	1549.25048828125	-970.5911254882815	-267.9222717285157	1539.477905273438	-990.306091308594	212.1658782958985	1511.744873046875	-1041.698608398438	-336.0809936523438	148.97705078125	-783.7574462890627	
971	4.850000000000001	-234.3093872070313	1812.476440429688	-989.4351806640627	-363.0312805175782	1763.182861328125	-1064.617309570313	-402.2220153808595	1742.0234375	-903.8502197265627	-407.8181457519532	1575.488037109375	-989.6411132812502	-421.8231811523439	1274.958618164063	-970.614685058594	-317.2868652343751	1592.366577148438	-1135.076293945313	-150.9766082763672	1561.966064453125	-1229.416748046875	-124.3332443237305	1573.156372070313	-1187.532348632813	-81.77699279785158	1555.587890625	-1228.901000976563	-24.19425201416016	1553.400024414063	-1216.40869140625	-36.4122428894043	1477.172973632813	-1201.925415039063	226.2515869140626	1560.113525390625	-1089.969604492188	231.9981994628907	1576.1337890625	-987.8936767578127	-323.6503906250001	1585.433227539063	-831.2932128906252	-171.1333923339844	1556.46875	-726.3898315429689	-139.6517333984375	1570.26904296875	-764.3626708984376	-101.2945098876953	1554.569458007813	-720.7825317382814	-39.51597976684571	1556.333862304688	-729.1113281250001	-43.66187286376954	1474.908203125	-739.8300781250001	212.9863281250001	1561.717041015625	-854.7971801757815	-260.9432983398438	1069.28857421875	-1062.938598632813	-258.9692382812501	1064.927001953125	-844.5079345703127	-426.5950317382814	1124.461181640625	-951.037292480469	-433.4283752441407	1091.377197265625	-975.630310058594	-432.1372375488282	1097.935668945313	-919.3442382812502	-344.0175476074219	826.4326782226565	-1125.571655273438	-302.5728149414063	752.0145263671876	-1127.019653320313	-255.4126434326172	759.9348144531251	-1124.79443359375	-322.6209716796876	697.7437744140626	-1111.874877929688	-288.2648315429688	542.0715942382814	-1097.791625976563	-278.2940979003907	540.4427490234376	-976.2386474609377	-268.2214965820313	367.5003051757813	-1019.473510742188	-296.7358093261719	319.0632934570313	-1088.176391601563	-265.4797058105469	318.3581542968751	-1052.0341796875	-285.4546203613282	242.426742553711	-1019.913818359375	-342.1784973144532	126.8120269775391	-1062.362670898438	-323.5077819824219	138.6925048828125	-978.8106079101565	-407.2254638671876	110.2475280761719	-1010.092468261719	-202.5230102539063	63.15183258056642	-987.2427978515627	-201.1366577148438	62.84748840332033	-1034.017456054688	-238.261947631836	47.54426574707032	-1080.615966796875	-337.3351745605469	796.5110473632815	-744.6408081054689	-291.4835205078126	747.3999633789064	-737.1409301757814	-259.0073547363282	752.4392700195314	-742.7644653320314	-306.9577636718751	664.7111816406251	-746.7145996093751	-294.2519531250001	553.3737182617189	-740.8483886718751	-306.1777648925782	534.0281982421876	-861.378356933594	-253.9960021972657	421.9715270996095	-756.2832641601564	-323.6396789550782	359.7469482421876	-696.2997436523439	-284.4460754394532	349.1204223632813	-716.4370727539064	-278.9981994628907	295.5313415527344	-737.1563110351564	-349.5019226074219	148.1613311767578	-698.9827880859376	-414.4548950195314	117.6535263061524	-738.4291992187501	-212.7881622314454	68.33712768554689	-774.3626098632815	-203.3929595947266	65.30352020263673	-738.1430053710939	-240.2799377441407	51.4633140563965	-683.6433105468751	228.634750366211	1547.589233398438	-969.6462402343752	-267.6650390625001	1539.499633789063	-989.314880371094	212.087875366211	1511.6787109375	-1040.674560546875	-336.2946777343751	148.8131408691407	-783.386169433594	
972	4.855	-234.0411224365235	1812.324340820313	-988.3494262695315	-363.0684509277344	1763.050659179688	-1063.421264648438	-402.1575012207032	1741.95068359375	-902.7150878906252	-407.8075561523439	1575.4287109375	-988.6322021484377	-421.5754699707032	1274.922485351563	-969.6644287109377	-316.3695678710938	1592.784790039063	-1133.349487304688	-151.302474975586	1561.724975585938	-1228.046142578125	-124.4567642211914	1573.207641601563	-1186.403686523438	-81.70582580566408	1555.588745117188	-1227.741577148438	-23.93895339965821	1552.89501953125	-1215.345336914063	-36.40292358398438	1477.59716796875	-1200.610961914063	226.3291931152344	1560.006103515625	-1088.974975585938	231.9940795898438	1576.786743164063	-987.1594848632815	-323.5032348632813	1585.204956054688	-830.076843261719	-171.0894775390625	1556.38232421875	-725.4310913085939	-139.716781616211	1570.316772460938	-763.3130493164064	-101.2428817749024	1554.47802734375	-719.6244506835939	-39.30592346191407	1556.127563476563	-728.0488891601564	-43.64503479003907	1474.859619140625	-738.4273071289064	212.9657592773438	1561.747802734375	-853.7573852539065	-260.8981628417969	1069.752075195313	-1062.064453125	-258.5671691894532	1064.78076171875	-843.8367919921877	-426.2918090820314	1124.411987304688	-950.054138183594	-432.786834716797	1090.798583984375	-974.8528442382815	-430.0039672851564	1096.258422851563	-918.488708496094	-343.8069763183594	826.4927978515627	-1125.0673828125	-302.4035949707032	752.2336425781251	-1126.458129882813	-255.2070617675782	759.9752807617189	-1124.181396484375	-322.4085693359376	697.9881591796876	-1111.375122070313	-288.1743774414063	542.0505981445314	-1097.515747070313	-277.7651062011719	539.7106933593751	-975.4927368164065	-268.1181640625001	367.4820556640626	-1019.288024902344	-296.7788085937501	319.0446166992188	-1087.958618164063	-265.3830261230469	318.2892761230469	-1051.865234375	-285.4106445312501	242.3488922119141	-1019.801208496094	-342.1963195800782	126.8483276367188	-1062.29541015625	-323.5261230468751	138.7335052490235	-978.742858886719	-407.171844482422	110.2674102783203	-1010.125366210938	-202.5065155029297	63.15639877319337	-987.2359619140627	-201.116195678711	62.80773544311525	-1034.003540039063	-238.3255462646485	47.50239562988282	-1080.58984375	-337.0695800781251	796.2689208984377	-744.0778808593751	-291.3500976562501	747.2239990234376	-736.7481689453126	-258.8601379394532	751.9957275390626	-742.3020629882814	-307.0468750000001	664.2874755859376	-745.9776611328126	-294.5000000000001	553.7313232421876	-741.0209960937501	-306.5396423339844	533.8365478515626	-861.001403808594	-254.1760559082032	421.6676635742189	-755.9775390625001	-323.7355346679688	359.5544128417969	-695.8090820312501	-284.5388793945313	348.9455871582032	-716.2327880859376	-279.0774536132813	295.3111572265626	-736.9033813476564	-349.8093872070313	147.719482421875	-698.6062011718751	-414.5681762695314	116.999984741211	-737.9762573242189	-212.8975982666016	68.31524658203126	-774.229187011719	-203.5484924316407	65.29256439208986	-737.9821166992189	-240.2027130126954	51.13129043579103	-683.4772338867189	227.9633789062501	1549.109741210938	-968.488464355469	-267.5743713378907	1539.477416992188	-988.0621337890627	212.1164855957032	1511.451782226563	-1039.648559570313	-336.4850769042969	148.5938415527344	-782.9195556640627	
973	4.86	-234.0446472167969	1812.476684570313	-987.2788085937502	-363.0281066894532	1763.194946289063	-1062.193359375	-402.0862121582032	1742.150268554688	-901.5831298828127	-407.8877563476564	1575.262329101563	-987.3236083984377	-421.4441223144532	1274.785522460938	-968.495788574219	-316.1618041992188	1592.986083984375	-1132.318603515625	-151.0219879150391	1561.821899414063	-1227.227294921875	-124.2849349975586	1573.27685546875	-1185.281616210938	-81.82169342041017	1555.591430664063	-1226.540893554688	-23.78644561767578	1552.926513671875	-1214.430053710938	-36.66936874389649	1477.284545898438	-1199.585083007813	226.2486267089844	1559.993286132813	-1087.9619140625	232.0292968750001	1576.63720703125	-986.0213623046877	-323.5923767089844	1585.119506835938	-828.9587402343752	-170.9197082519532	1556.124633789063	-724.0473022460939	-139.7897186279297	1570.17626953125	-762.1379394531251	-101.1987457275391	1554.428588867188	-718.7018432617189	-39.27540588378907	1556.0908203125	-726.9769287109376	-43.6247901916504	1474.710693359375	-737.5101318359376	213.0676574707032	1561.999145507813	-853.0791015625002	-260.1692199707032	1069.372680664063	-1061.379150390625	-258.0646057128907	1064.691650390625	-843.1186523437502	-425.9741210937501	1124.074829101563	-949.1179199218752	-432.4116516113282	1090.543701171875	-973.994079589844	-429.8982849121095	1096.382202148438	-917.668395996094	-343.5425720214844	826.475036621094	-1124.569580078125	-302.2546997070313	752.3597412109376	-1125.916137695313	-254.9730224609376	760.0483398437501	-1123.655883789063	-322.2241821289063	698.0861206054689	-1110.869995117188	-288.0542907714844	542.0413818359376	-1097.15673828125	-277.6865539550782	539.9392700195314	-975.2327270507815	-268.0628051757813	367.5293579101563	-1019.077331542969	-296.6816406250001	319.1295166015626	-1087.784545898438	-265.2858276367188	318.3250732421876	-1051.668334960938	-285.3674011230469	242.3767089843751	-1019.721862792969	-342.2232971191407	126.8990707397461	-1062.225830078125	-323.4884033203126	138.644775390625	-978.6885375976565	-407.311004638672	110.3809585571289	-1009.996398925781	-202.4762115478516	63.13383865356447	-987.273620605469	-201.0957794189454	62.79941177368165	-1034.036010742188	-238.2530517578126	47.60932540893555	-1080.594604492188	-336.8973693847657	795.964782714844	-743.3867187500001	-291.2056884765626	746.7677612304689	-736.0011596679689	-258.6769104003907	752.0045166015626	-741.7136230468751	-307.1112670898438	664.0222778320314	-745.2813110351564	-294.4097900390626	552.9518432617189	-740.0707397460939	-306.9315490722657	533.6600341796876	-860.499450683594	-254.5787200927735	421.3176879882814	-755.5253295898439	-323.9016418457032	359.2671813964844	-695.3479003906251	-284.8104858398438	348.5769042968751	-715.8390502929689	-279.2460021972657	295.0294799804688	-736.4859619140626	-349.9778137207032	147.6238098144532	-698.2888793945314	-414.611297607422	116.6278839111328	-737.6917114257814	-212.9848327636719	68.35336303710939	-774.0352783203127	-203.5908660888672	65.19384002685548	-737.7739868164064	-240.0623474121094	50.85562896728517	-683.3463134765626	228.1918945312501	1549.03271484375	-967.4085693359377	-267.8532104492188	1539.376220703125	-986.944030761719	212.4994659423829	1511.537231445313	-1038.5234375	-336.5027770996094	148.44384765625	-782.409851074219	
